<svg xmlns="http://www.w3.org/2000/svg" width="1426.824" height="1427.145" viewBox="0 0 1426.824 1427.145">
  <g id="Layer_2" data-name="Layer 2" transform="translate(-165.86)">
    <g id="Layer_2-2" data-name="Layer 2" transform="translate(165.86)">
      <path id="Path_1" data-name="Path 1" d="M411.743,836.61l98.234,98.234L854.436,590.385,608.489,344.438,756.2,196.745l245.9,245.9,98.234-98.234L756.565,0,165.86,590.727l98.234,98.234L510.319,442.65,658.011,590.342Zm246.524,246.1,343.818,344.438,590.6-590.748-98.234-98.234-246.2,246.31L1100.533,836.781,1346.8,590.513l-98.234-98.234-344.416,344.5,245.9,245.926L1002.342,1230.4,756.459,984.473Z" transform="translate(-165.86)" fill="#37588c"/>
      <path id="Path_2" data-name="Path 2" d="M1149.662,836.5l98.234,98.234,344.438-343.818L1001.585.27,903.351,98.5l246.31,246.225L1001.969,492.421,755.7,246.153l-98.234,98.234,344.459,344.459L1247.853,442.92l147.714,147.692ZM166,835.513l590.641,590.705,98.234-98.234-246.311-246.2L756.278,934.067l246.268,246.289,98.234-98.234L756.321,737.664,510.373,983.59,362.66,835.876l245.9-245.883-98.234-98.234Z" transform="translate(-165.701 0.307)" fill="#b2b3b3"/>
    </g>
  </g>
</svg>
